<svg width="3469" height="1397" viewBox="0 0 3469 1397" fill="none" xmlns="http://www.w3.org/2000/svg">
<path d="M192.858 0V939.1H0V0H192.858Z" fill="white"/>
<path d="M544.389 390.217V939.1H358.626V241.225H532.779L544.389 390.217ZM517.298 565.653H466.987C466.987 514.054 473.653 467.615 486.983 426.336C500.313 384.627 519.018 349.153 543.099 319.913C567.179 290.244 595.775 267.669 628.885 252.19C662.426 236.28 699.836 228.325 741.117 228.325C773.797 228.325 803.683 233.055 830.773 242.515C857.864 251.975 881.084 267.024 900.434 287.664C920.215 308.304 935.265 335.608 945.585 369.577C956.335 403.547 961.71 445.041 961.71 494.06V939.1H774.657V493.415C774.657 462.455 770.357 438.376 761.757 421.176C753.157 403.977 740.472 391.937 723.702 385.057C707.361 377.747 687.151 374.092 663.071 374.092C638.13 374.092 616.415 379.037 597.925 388.927C579.864 398.817 564.814 412.576 552.774 430.206C541.164 447.406 532.348 467.615 526.328 490.835C520.308 514.054 517.298 538.994 517.298 565.653Z" fill="white"/>
<path d="M1482.23 526.954H1241L1239.71 394.087H1442.24C1477.93 394.087 1507.17 389.572 1529.96 380.542C1552.75 371.082 1569.74 357.537 1580.92 339.908C1592.53 321.848 1598.34 299.919 1598.34 274.119C1598.34 244.88 1592.75 221.23 1581.57 203.171C1570.82 185.111 1553.83 171.996 1530.61 163.827C1507.82 155.657 1478.36 151.572 1442.24 151.572H1308.08V939.1H1114.58V0H1442.24C1496.85 0 1545.66 5.15989 1588.66 15.4797C1632.09 25.7995 1668.86 41.4941 1698.96 62.5637C1729.06 83.6332 1752.06 110.293 1767.97 142.542C1783.88 174.361 1791.84 212.201 1791.84 256.06C1791.84 294.759 1783.02 330.448 1765.39 363.127C1748.19 395.807 1720.89 422.466 1683.48 443.106C1646.5 463.745 1598.12 475.14 1538.35 477.29L1482.23 526.954ZM1473.85 939.1H1188.11L1263.58 788.173H1473.85C1507.82 788.173 1535.55 782.799 1557.05 772.049C1578.56 760.869 1594.47 745.819 1604.79 726.9C1615.11 707.98 1620.27 686.266 1620.27 661.756C1620.27 634.237 1615.54 610.372 1606.08 590.163C1597.05 569.953 1582.43 554.473 1562.21 543.724C1542 532.544 1515.34 526.954 1482.23 526.954H1295.83L1297.12 394.087H1529.32L1573.83 446.331C1631.02 445.471 1677.03 455.575 1711.86 476.645C1747.12 497.285 1772.7 524.159 1788.61 557.268C1804.95 590.378 1813.12 625.852 1813.12 663.691C1813.12 723.89 1800.01 774.629 1773.78 815.908C1747.55 856.757 1709.06 887.501 1658.32 908.141C1608.01 928.78 1546.52 939.1 1473.85 939.1Z" fill="white"/>
<path d="M1916.97 597.257V583.713C1916.97 532.544 1924.28 485.46 1938.9 442.461C1953.52 399.032 1974.81 361.407 2002.76 329.588C2030.71 297.769 2065.11 273.044 2105.96 255.415C2146.81 237.355 2193.68 228.325 2246.57 228.325C2299.46 228.325 2346.55 237.355 2387.83 255.415C2429.11 273.044 2463.72 297.769 2491.67 329.588C2520.06 361.407 2541.56 399.032 2556.18 442.461C2570.8 485.46 2578.11 532.544 2578.11 583.713V597.257C2578.11 647.996 2570.8 695.08 2556.18 738.509C2541.56 781.509 2520.06 819.133 2491.67 851.382C2463.72 883.201 2429.32 907.926 2388.47 925.556C2347.62 943.185 2300.75 952 2247.86 952C2194.97 952 2147.88 943.185 2106.6 925.556C2065.75 907.926 2031.14 883.201 2002.76 851.382C1974.81 819.133 1953.52 781.509 1938.9 738.509C1924.28 695.08 1916.97 647.996 1916.97 597.257ZM2102.73 583.713V597.257C2102.73 626.497 2105.31 653.801 2110.47 679.171C2115.63 704.54 2123.8 726.9 2134.98 746.249C2146.59 765.169 2161.64 780.004 2180.13 790.753C2198.63 801.503 2221.2 806.878 2247.86 806.878C2273.66 806.878 2295.81 801.503 2314.3 790.753C2332.79 780.004 2347.62 765.169 2358.8 746.249C2369.98 726.9 2378.15 704.54 2383.31 679.171C2388.9 653.801 2391.7 626.497 2391.7 597.257V583.713C2391.7 555.333 2388.9 528.674 2383.31 503.734C2378.15 478.365 2369.77 456.005 2358.16 436.656C2346.98 416.876 2332.14 401.397 2313.65 390.217C2295.16 379.037 2272.8 373.447 2246.57 373.447C2220.34 373.447 2197.98 379.037 2179.49 390.217C2161.43 401.397 2146.59 416.876 2134.98 436.656C2123.8 456.005 2115.63 478.365 2110.47 503.734C2105.31 528.674 2102.73 555.333 2102.73 583.713Z" fill="white"/>
<path d="M2863.2 0L3039.93 327.653L3216.67 0H3437.9L3165.07 465.68L3445 939.1H3221.83L3039.93 604.997L2858.04 939.1H2633.58L2914.16 465.68L2640.67 0H2863.2Z" fill="white"/>
<path d="M1901 769.19V765.671V422.221C1901 408.534 1908.36 395.91 1920.26 389.2L1920.94 388.813L2237.63 210.158L2240.04 208.8C2249.02 203.733 2259.98 203.733 2268.96 208.8L2590.79 390.354C2601.42 396.352 2608 407.634 2608 419.867V422.221V765.671V769.19C2608 781.709 2601.4 793.293 2590.65 799.648L2271.25 988.43C2260.91 994.537 2248.09 994.537 2237.75 988.43L1918.35 799.648C1907.6 793.293 1901 781.709 1901 769.19Z" fill="white" stroke="#191919" stroke-width="63"/>
<path d="M2254.5 993.009V602.687Z" fill="white"/>
<path d="M2254.5 993.009V602.687" stroke="#191919" stroke-width="63"/>
<path d="M2254.5 602.687L1901 403.843Z" fill="white"/>
<path d="M2254.5 602.687L1901 403.843" stroke="#191919" stroke-width="63"/>
<path d="M2608 403.843L2254.5 602.687Z" fill="white"/>
<path d="M2608 403.843L2254.5 602.687" stroke="#191919" stroke-width="63"/>
<path d="M2110.5 828.497L2003 767.178L2048.5 685.997L2080 697.497L2110.5 828.497Z" fill="#191919"/>
<ellipse cx="2070.5" cy="649.448" rx="59.991" ry="46.7468" transform="rotate(44.8457 2070.5 649.448)" fill="#191919"/>
<path d="M124.104 1273.11C124.104 1269.17 123.498 1265.64 122.286 1262.51C121.174 1259.28 119.053 1256.35 115.921 1253.72C112.79 1251 108.395 1248.32 102.738 1245.7C97.0809 1243.07 89.7569 1240.35 80.766 1237.52C70.765 1234.29 61.269 1230.65 52.2782 1226.61C43.3884 1222.58 35.5088 1217.88 28.6394 1212.53C21.871 1207.08 16.5169 1200.77 12.5771 1193.6C8.73829 1186.43 6.8189 1178.1 6.8189 1168.61C6.8189 1159.42 8.83931 1151.09 12.8801 1143.62C16.921 1136.04 22.5781 1129.58 29.8516 1124.23C37.1251 1118.78 45.7119 1114.59 55.6119 1111.66C65.6129 1108.73 76.5737 1107.27 88.4941 1107.27C104.758 1107.27 118.952 1110.2 131.074 1116.05C143.197 1121.91 152.592 1129.94 159.259 1140.13C166.028 1150.33 169.412 1161.99 169.412 1175.12H124.255C124.255 1168.66 122.892 1163 120.164 1158.16C117.538 1153.21 113.497 1149.32 108.042 1146.49C102.688 1143.67 95.9191 1142.25 87.7365 1142.25C79.8569 1142.25 73.2905 1143.47 68.0374 1145.89C62.7844 1148.21 58.8446 1151.39 56.218 1155.43C53.5915 1159.37 52.2782 1163.81 52.2782 1168.76C52.2782 1172.49 53.1874 1175.88 55.0058 1178.91C56.9252 1181.93 59.7537 1184.76 63.4915 1187.39C67.2293 1190.01 71.8257 1192.49 77.2808 1194.81C82.7359 1197.13 89.0497 1199.4 96.2222 1201.62C108.244 1205.26 118.8 1209.35 127.892 1213.89C137.085 1218.44 144.763 1223.53 150.925 1229.19C157.087 1234.84 161.734 1241.25 164.866 1248.42C167.997 1255.59 169.563 1263.72 169.563 1272.81C169.563 1282.4 167.694 1290.98 163.957 1298.55C160.219 1306.13 154.814 1312.54 147.743 1317.79C140.671 1323.04 132.236 1327.03 122.437 1329.75C112.638 1332.48 101.677 1333.84 89.5548 1333.84C78.6446 1333.84 67.8859 1332.43 57.2787 1329.6C46.6716 1326.67 37.0241 1322.28 28.3363 1316.43C19.7495 1310.57 12.8801 1303.1 7.72808 1294.01C2.57603 1284.92 0 1274.17 0 1261.75H45.6108C45.6108 1268.62 46.6716 1274.42 48.793 1279.17C50.9144 1283.91 53.8945 1287.75 57.7333 1290.68C61.6731 1293.61 66.3201 1295.73 71.6742 1297.04C77.1293 1298.35 83.0895 1299.01 89.5548 1299.01C97.4345 1299.01 103.9 1297.9 108.951 1295.68C114.103 1293.46 117.891 1290.38 120.316 1286.44C122.841 1282.5 124.104 1278.06 124.104 1273.11Z" fill="#7FB069"/>
<path d="M273.21 1333.84C260.482 1333.84 249.067 1331.82 238.964 1327.79C228.862 1323.65 220.276 1317.94 213.204 1310.67C206.234 1303.4 200.88 1294.97 197.142 1285.38C193.404 1275.69 191.535 1265.39 191.535 1254.48V1248.42C191.535 1236 193.303 1224.64 196.839 1214.35C200.375 1204.05 205.426 1195.11 211.992 1187.54C218.659 1179.97 226.741 1174.16 236.237 1170.12C245.733 1165.98 256.441 1163.91 268.361 1163.91C279.979 1163.91 290.283 1165.83 299.274 1169.67C308.265 1173.5 315.791 1178.96 321.852 1186.02C328.014 1193.09 332.661 1201.57 335.793 1211.47C338.924 1221.26 340.49 1232.17 340.49 1244.18V1262.36H210.174V1233.28H297.607V1229.95C297.607 1223.89 296.496 1218.49 294.273 1213.74C292.152 1208.89 288.919 1205.06 284.575 1202.23C280.231 1199.4 274.675 1197.99 267.907 1197.99C262.149 1197.99 257.199 1199.25 253.057 1201.78C248.915 1204.3 245.531 1207.83 242.904 1212.38C240.379 1216.92 238.459 1222.27 237.146 1228.43C235.934 1234.49 235.328 1241.15 235.328 1248.42V1254.48C235.328 1261.04 236.237 1267.1 238.055 1272.66C239.975 1278.21 242.652 1283.01 246.086 1287.04C249.622 1291.08 253.865 1294.21 258.815 1296.43C263.866 1298.66 269.574 1299.77 275.938 1299.77C283.818 1299.77 291.142 1298.25 297.91 1295.22C304.779 1292.09 310.689 1287.4 315.639 1281.14L336.853 1304.16C333.419 1309.11 328.721 1313.85 322.761 1318.4C316.902 1322.94 309.83 1326.67 301.547 1329.6C293.263 1332.43 283.818 1333.84 273.21 1333.84Z" fill="#7FB069"/>
<path d="M433.076 1299.77C438.43 1299.77 443.178 1298.76 447.32 1296.74C451.461 1294.62 454.694 1291.69 457.018 1287.95C459.442 1284.12 460.705 1279.62 460.806 1274.47H501.871C501.77 1285.98 498.689 1296.23 492.627 1305.22C486.566 1314.1 478.434 1321.12 468.231 1326.27C458.028 1331.32 446.612 1333.84 433.985 1333.84C421.256 1333.84 410.144 1331.72 400.648 1327.48C391.253 1323.24 383.424 1317.39 377.161 1309.91C370.897 1302.34 366.2 1293.56 363.068 1283.56C359.937 1273.46 358.371 1262.66 358.371 1251.15V1246.76C358.371 1235.15 359.937 1224.34 363.068 1214.35C366.2 1204.25 370.897 1195.46 377.161 1187.99C383.424 1180.42 391.253 1174.51 400.648 1170.27C410.043 1166.03 421.054 1163.91 433.682 1163.91C447.118 1163.91 458.886 1166.49 468.989 1171.64C479.192 1176.79 487.172 1184.16 492.93 1193.75C498.79 1203.24 501.77 1214.5 501.871 1227.52H460.806C460.705 1222.07 459.543 1217.12 457.321 1212.68C455.199 1208.24 452.068 1204.7 447.926 1202.08C443.885 1199.35 438.884 1197.99 432.924 1197.99C426.56 1197.99 421.357 1199.35 417.316 1202.08C413.276 1204.7 410.144 1208.34 407.922 1212.98C405.699 1217.53 404.133 1222.73 403.224 1228.58C402.416 1234.34 402.012 1240.4 402.012 1246.76V1251.15C402.012 1257.51 402.416 1263.62 403.224 1269.48C404.032 1275.33 405.548 1280.53 407.77 1285.08C410.093 1289.62 413.276 1293.2 417.316 1295.83C421.357 1298.45 426.61 1299.77 433.076 1299.77Z" fill="#7FB069"/>
<path d="M624.156 1291.59V1166.94H667.797V1330.81H626.732L624.156 1291.59ZM629.005 1257.96L641.885 1257.66C641.885 1268.57 640.623 1278.71 638.097 1288.1C635.572 1297.39 631.783 1305.47 626.732 1312.34C621.681 1319.1 615.317 1324.4 607.639 1328.24C599.962 1331.98 590.921 1333.84 580.515 1333.84C572.535 1333.84 565.16 1332.73 558.392 1330.51C551.724 1328.19 545.966 1324.6 541.117 1319.76C536.369 1314.81 532.632 1308.5 529.904 1300.83C527.277 1293.05 525.964 1283.71 525.964 1272.81V1166.94H569.605V1273.11C569.605 1277.96 570.161 1282.05 571.272 1285.38C572.484 1288.71 574.151 1291.44 576.273 1293.56C578.394 1295.68 580.869 1297.19 583.698 1298.1C586.627 1299.01 589.86 1299.46 593.396 1299.46C602.386 1299.46 609.458 1297.65 614.61 1294.01C619.863 1290.38 623.55 1285.43 625.672 1279.17C627.894 1272.81 629.005 1265.74 629.005 1257.96Z" fill="#7FB069"/>
<path d="M744.775 1202.68V1330.81H701.134V1166.94H742.199L744.775 1202.68ZM794.174 1165.88L793.416 1206.32C791.295 1206.02 788.719 1205.76 785.688 1205.56C782.759 1205.26 780.082 1205.11 777.657 1205.11C771.495 1205.11 766.141 1205.92 761.595 1207.53C757.15 1209.05 753.412 1211.32 750.382 1214.35C747.452 1217.38 745.23 1221.06 743.714 1225.4C742.3 1229.74 741.492 1234.69 741.29 1240.24L732.501 1237.52C732.501 1226.92 733.562 1217.17 735.683 1208.29C737.805 1199.3 740.886 1191.48 744.927 1184.81C749.068 1178.15 754.119 1173 760.08 1169.36C766.04 1165.73 772.859 1163.91 780.536 1163.91C782.961 1163.91 785.436 1164.11 787.961 1164.52C790.487 1164.82 792.558 1165.27 794.174 1165.88Z" fill="#7FB069"/>
<path d="M887.214 1333.84C874.486 1333.84 863.07 1331.82 852.968 1327.79C842.866 1323.65 834.279 1317.94 827.208 1310.67C820.237 1303.4 814.883 1294.97 811.146 1285.38C807.408 1275.69 805.539 1265.39 805.539 1254.48V1248.42C805.539 1236 807.307 1224.64 810.843 1214.35C814.378 1204.05 819.429 1195.11 825.996 1187.54C832.663 1179.97 840.745 1174.16 850.241 1170.12C859.737 1165.98 870.445 1163.91 882.365 1163.91C893.983 1163.91 904.287 1165.83 913.278 1169.67C922.268 1173.5 929.794 1178.96 935.856 1186.02C942.018 1193.09 946.665 1201.57 949.797 1211.47C952.928 1221.26 954.494 1232.17 954.494 1244.18V1262.36H824.177V1233.28H911.611V1229.95C911.611 1223.89 910.499 1218.49 908.277 1213.74C906.156 1208.89 902.923 1205.06 898.579 1202.23C894.235 1199.4 888.679 1197.99 881.911 1197.99C876.152 1197.99 871.202 1199.25 867.061 1201.78C862.919 1204.3 859.535 1207.83 856.908 1212.38C854.382 1216.92 852.463 1222.27 851.15 1228.43C849.938 1234.49 849.331 1241.15 849.331 1248.42V1254.48C849.331 1261.04 850.241 1267.1 852.059 1272.66C853.978 1278.21 856.655 1283.01 860.09 1287.04C863.626 1291.08 867.869 1294.21 872.819 1296.43C877.87 1298.66 883.577 1299.77 889.942 1299.77C897.821 1299.77 905.145 1298.25 911.914 1295.22C918.783 1292.09 924.693 1287.4 929.643 1281.14L950.857 1304.16C947.423 1309.11 942.725 1313.85 936.765 1318.4C930.906 1322.94 923.834 1326.67 915.551 1329.6C907.267 1332.43 897.821 1333.84 887.214 1333.84Z" fill="#7FB069"/>
<path d="M1080.11 1110.3H1118.6L1175.27 1272.2L1231.95 1110.3H1270.44L1190.73 1330.81H1159.82L1080.11 1110.3ZM1059.35 1110.3H1097.69L1104.66 1268.11V1330.81H1059.35V1110.3ZM1252.86 1110.3H1291.35V1330.81H1245.89V1268.11L1252.86 1110.3Z" fill="#7FB069"/>
<path d="M1416.97 1293.86V1220.86C1416.97 1215.61 1416.11 1211.12 1414.39 1207.38C1412.67 1203.54 1410 1200.56 1406.36 1198.44C1402.82 1196.32 1398.23 1195.26 1392.57 1195.26C1387.72 1195.26 1383.53 1196.12 1379.99 1197.84C1376.46 1199.45 1373.73 1201.83 1371.81 1204.96C1369.89 1207.98 1368.93 1211.57 1368.93 1215.71H1325.29C1325.29 1208.74 1326.91 1202.13 1330.14 1195.87C1333.37 1189.61 1338.07 1184.11 1344.23 1179.36C1350.39 1174.51 1357.72 1170.73 1366.2 1168C1374.79 1165.27 1384.39 1163.91 1394.99 1163.91C1407.72 1163.91 1419.04 1166.03 1428.94 1170.27C1438.84 1174.51 1446.62 1180.87 1452.27 1189.36C1458.03 1197.84 1460.91 1208.44 1460.91 1221.16V1291.28C1460.91 1300.27 1461.47 1307.64 1462.58 1313.4C1463.69 1319.05 1465.31 1324 1467.43 1328.24V1330.81H1423.33C1421.21 1326.37 1419.59 1320.82 1418.48 1314.15C1417.47 1307.39 1416.97 1300.62 1416.97 1293.86ZM1422.72 1231.01L1423.03 1255.69H1398.63C1392.87 1255.69 1387.87 1256.35 1383.63 1257.66C1379.39 1258.97 1375.9 1260.84 1373.17 1263.27C1370.45 1265.59 1368.43 1268.31 1367.11 1271.44C1365.9 1274.57 1365.29 1278.01 1365.29 1281.74C1365.29 1285.48 1366.15 1288.86 1367.87 1291.89C1369.59 1294.82 1372.06 1297.14 1375.3 1298.86C1378.53 1300.47 1382.32 1301.28 1386.66 1301.28C1393.23 1301.28 1398.93 1299.97 1403.78 1297.34C1408.63 1294.72 1412.37 1291.49 1415 1287.65C1417.72 1283.81 1419.14 1280.18 1419.24 1276.75L1430.76 1295.22C1429.14 1299.36 1426.92 1303.65 1424.09 1308.1C1421.36 1312.54 1417.88 1316.73 1413.63 1320.67C1409.39 1324.5 1404.29 1327.68 1398.33 1330.21C1392.37 1332.63 1385.3 1333.84 1377.11 1333.84C1366.71 1333.84 1357.26 1331.77 1348.78 1327.63C1340.39 1323.39 1333.73 1317.59 1328.78 1310.22C1323.93 1302.74 1321.5 1294.26 1321.5 1284.77C1321.5 1276.19 1323.12 1268.57 1326.35 1261.9C1329.58 1255.24 1334.33 1249.63 1340.6 1245.09C1346.96 1240.45 1354.89 1236.96 1364.39 1234.64C1373.88 1232.22 1384.89 1231.01 1397.42 1231.01H1422.72Z" fill="#7FB069"/>
<path d="M1540.62 1166.94V1330.81H1496.82V1166.94H1540.62ZM1494.1 1124.23C1494.1 1117.87 1496.32 1112.62 1500.76 1108.48C1505.21 1104.34 1511.17 1102.27 1518.64 1102.27C1526.02 1102.27 1531.93 1104.34 1536.37 1108.48C1540.92 1112.62 1543.19 1117.87 1543.19 1124.23C1543.19 1130.59 1540.92 1135.84 1536.37 1139.98C1531.93 1144.12 1526.02 1146.19 1518.64 1146.19C1511.17 1146.19 1505.21 1144.12 1500.76 1139.98C1496.32 1135.84 1494.1 1130.59 1494.1 1124.23Z" fill="#7FB069"/>
<path d="M1622.75 1098.18V1330.81H1578.95V1098.18H1622.75Z" fill="#7FB069"/>
<path d="M1791.7 1330.81H1747.76V1152.4C1747.76 1139.98 1750.18 1129.53 1755.03 1121.05C1759.98 1112.47 1766.9 1106.01 1775.79 1101.66C1784.78 1097.22 1795.44 1095 1807.77 1095C1811.81 1095 1815.7 1095.3 1819.43 1095.91C1823.17 1096.41 1826.81 1097.07 1830.34 1097.88L1829.89 1130.74C1827.97 1130.24 1825.95 1129.88 1823.83 1129.68C1821.71 1129.48 1819.23 1129.38 1816.4 1129.38C1811.15 1129.38 1806.65 1130.29 1802.92 1132.11C1799.28 1133.82 1796.5 1136.4 1794.58 1139.83C1792.66 1143.26 1791.7 1147.45 1791.7 1152.4V1330.81ZM1824.43 1166.94V1197.84H1723.36V1166.94H1824.43Z" fill="#7FB069"/>
<path d="M1840.34 1250.54V1247.36C1840.34 1235.35 1842.06 1224.29 1845.5 1214.19C1848.93 1204 1853.93 1195.16 1860.5 1187.69C1867.06 1180.22 1875.15 1174.41 1884.74 1170.27C1894.34 1166.03 1905.35 1163.91 1917.78 1163.91C1930.2 1163.91 1941.26 1166.03 1950.96 1170.27C1960.66 1174.41 1968.79 1180.22 1975.36 1187.69C1982.03 1195.16 1987.08 1204 1990.51 1214.19C1993.95 1224.29 1995.66 1235.35 1995.66 1247.36V1250.54C1995.66 1262.46 1993.95 1273.51 1990.51 1283.71C1987.08 1293.81 1982.03 1302.64 1975.36 1310.22C1968.79 1317.69 1960.71 1323.49 1951.11 1327.63C1941.52 1331.77 1930.51 1333.84 1918.08 1333.84C1905.65 1333.84 1894.59 1331.77 1884.89 1327.63C1875.3 1323.49 1867.17 1317.69 1860.5 1310.22C1853.93 1302.64 1848.93 1293.81 1845.5 1283.71C1842.06 1273.51 1840.34 1262.46 1840.34 1250.54ZM1883.99 1247.36V1250.54C1883.99 1257.41 1884.59 1263.82 1885.8 1269.78C1887.02 1275.74 1888.94 1280.99 1891.56 1285.53C1894.29 1289.97 1897.83 1293.46 1902.17 1295.98C1906.51 1298.5 1911.82 1299.77 1918.08 1299.77C1924.14 1299.77 1929.34 1298.5 1933.69 1295.98C1938.03 1293.46 1941.52 1289.97 1944.14 1285.53C1946.77 1280.99 1948.69 1275.74 1949.9 1269.78C1951.21 1263.82 1951.87 1257.41 1951.87 1250.54V1247.36C1951.87 1240.7 1951.21 1234.44 1949.9 1228.58C1948.69 1222.63 1946.72 1217.38 1943.99 1212.83C1941.37 1208.19 1937.88 1204.55 1933.54 1201.93C1929.19 1199.3 1923.94 1197.99 1917.78 1197.99C1911.61 1197.99 1906.36 1199.3 1902.02 1201.93C1897.77 1204.55 1894.29 1208.19 1891.56 1212.83C1888.94 1217.38 1887.02 1222.63 1885.8 1228.58C1884.59 1234.44 1883.99 1240.7 1883.99 1247.36Z" fill="#7FB069"/>
<path d="M2066.13 1202.68V1330.81H2022.48V1166.94H2063.55L2066.13 1202.68ZM2115.52 1165.88L2114.77 1206.32C2112.65 1206.02 2110.07 1205.76 2107.04 1205.56C2104.11 1205.26 2101.43 1205.11 2099.01 1205.11C2092.85 1205.11 2087.49 1205.92 2082.95 1207.53C2078.5 1209.05 2074.76 1211.32 2071.73 1214.35C2068.8 1217.38 2066.58 1221.06 2065.06 1225.4C2063.65 1229.74 2062.84 1234.69 2062.64 1240.24L2053.85 1237.52C2053.85 1226.92 2054.91 1217.17 2057.03 1208.29C2059.16 1199.3 2062.24 1191.48 2066.28 1184.81C2070.42 1178.15 2075.47 1173 2081.43 1169.36C2087.39 1165.73 2094.21 1163.91 2101.89 1163.91C2104.31 1163.91 2106.79 1164.11 2109.31 1164.52C2111.84 1164.82 2113.91 1165.27 2115.52 1165.88Z" fill="#7FB069"/>
<path d="M2364.19 1295.37V1330.81H2246.75V1295.37H2364.19ZM2261.6 1110.3V1330.81H2216.14V1110.3H2261.6ZM2348.88 1200.11V1234.64H2246.75V1200.11H2348.88ZM2364.04 1110.3V1145.89H2246.75V1110.3H2364.04Z" fill="#7FB069"/>
<path d="M2439.8 1299.01L2476.17 1166.94H2521.78L2466.47 1330.81H2438.89L2439.8 1299.01ZM2414.8 1166.94L2451.32 1299.16L2452.08 1330.81H2424.35L2369.04 1166.94H2414.8Z" fill="#7FB069"/>
<path d="M2614.67 1333.84C2601.94 1333.84 2590.52 1331.82 2580.42 1327.79C2570.32 1323.65 2561.73 1317.94 2554.66 1310.67C2547.69 1303.4 2542.34 1294.97 2538.6 1285.38C2534.86 1275.69 2532.99 1265.39 2532.99 1254.48V1248.42C2532.99 1236 2534.76 1224.64 2538.3 1214.35C2541.83 1204.05 2546.88 1195.11 2553.45 1187.54C2560.12 1179.97 2568.2 1174.16 2577.69 1170.12C2587.19 1165.98 2597.9 1163.91 2609.82 1163.91C2621.44 1163.91 2631.74 1165.83 2640.73 1169.67C2649.72 1173.5 2657.25 1178.96 2663.31 1186.02C2669.47 1193.09 2674.12 1201.57 2677.25 1211.47C2680.38 1221.26 2681.95 1232.17 2681.95 1244.18V1262.36H2551.63V1233.28H2639.06V1229.95C2639.06 1223.89 2637.95 1218.49 2635.73 1213.74C2633.61 1208.89 2630.38 1205.06 2626.03 1202.23C2621.69 1199.4 2616.13 1197.99 2609.36 1197.99C2603.61 1197.99 2598.66 1199.25 2594.51 1201.78C2590.37 1204.3 2586.99 1207.83 2584.36 1212.38C2581.84 1216.92 2579.92 1222.27 2578.6 1228.43C2577.39 1234.49 2576.79 1241.15 2576.79 1248.42V1254.48C2576.79 1261.04 2577.69 1267.1 2579.51 1272.66C2581.43 1278.21 2584.11 1283.01 2587.54 1287.04C2591.08 1291.08 2595.32 1294.21 2600.27 1296.43C2605.32 1298.66 2611.03 1299.77 2617.4 1299.77C2625.28 1299.77 2632.6 1298.25 2639.37 1295.22C2646.24 1292.09 2652.15 1287.4 2657.1 1281.14L2678.31 1304.16C2674.88 1309.11 2670.18 1313.85 2664.22 1318.4C2658.36 1322.94 2651.29 1326.67 2643 1329.6C2634.72 1332.43 2625.28 1333.84 2614.67 1333.84Z" fill="#7FB069"/>
<path d="M2750.44 1202.68V1330.81H2706.8V1166.94H2747.86L2750.44 1202.68ZM2799.84 1165.88L2799.08 1206.32C2796.96 1206.02 2794.38 1205.76 2791.35 1205.56C2788.42 1205.26 2785.75 1205.11 2783.32 1205.11C2777.16 1205.11 2771.81 1205.92 2767.26 1207.53C2762.81 1209.05 2759.08 1211.32 2756.05 1214.35C2753.12 1217.38 2750.89 1221.06 2749.38 1225.4C2747.96 1229.74 2747.16 1234.69 2746.95 1240.24L2738.17 1237.52C2738.17 1226.92 2739.23 1217.17 2741.35 1208.29C2743.47 1199.3 2746.55 1191.48 2750.59 1184.81C2754.73 1178.15 2759.78 1173 2765.74 1169.36C2771.7 1165.73 2778.52 1163.91 2786.2 1163.91C2788.63 1163.91 2791.1 1164.11 2793.63 1164.52C2796.15 1164.82 2798.22 1165.27 2799.84 1165.88Z" fill="#7FB069"/>
<path d="M2871.82 1312.34L2915.31 1166.94H2962.13L2896.21 1355.5C2894.8 1359.64 2892.88 1364.08 2890.45 1368.83C2888.13 1373.58 2884.95 1378.07 2880.91 1382.31C2876.97 1386.65 2871.97 1390.18 2865.91 1392.91C2859.95 1395.64 2852.62 1397 2843.93 1397C2839.79 1397 2836.41 1396.75 2833.78 1396.24C2831.16 1395.74 2828.02 1395.03 2824.39 1394.12V1362.17C2825.5 1362.17 2826.66 1362.17 2827.87 1362.17C2829.08 1362.27 2830.25 1362.32 2831.36 1362.32C2837.12 1362.32 2841.81 1361.66 2845.45 1360.35C2849.09 1359.04 2852.02 1357.02 2854.24 1354.29C2856.46 1351.66 2858.23 1348.23 2859.54 1343.99L2871.82 1312.34ZM2853.63 1166.94L2889.24 1285.68L2895.46 1331.87L2865.75 1335.06L2806.81 1166.94H2853.63Z" fill="#7FB069"/>
<path d="M2970.16 1250.54V1247.36C2970.16 1235.35 2971.88 1224.29 2975.31 1214.19C2978.75 1204 2983.75 1195.16 2990.31 1187.69C2996.88 1180.22 3004.96 1174.41 3014.56 1170.27C3024.16 1166.03 3035.17 1163.91 3047.59 1163.91C3060.02 1163.91 3071.08 1166.03 3080.78 1170.27C3090.48 1174.41 3098.61 1180.22 3105.17 1187.69C3111.84 1195.16 3116.89 1204 3120.33 1214.19C3123.76 1224.29 3125.48 1235.35 3125.48 1247.36V1250.54C3125.48 1262.46 3123.76 1273.51 3120.33 1283.71C3116.89 1293.81 3111.84 1302.64 3105.17 1310.22C3098.61 1317.69 3090.53 1323.49 3080.93 1327.63C3071.33 1331.77 3060.32 1333.84 3047.9 1333.84C3035.47 1333.84 3024.41 1331.77 3014.71 1327.63C3005.11 1323.49 2996.98 1317.69 2990.31 1310.22C2983.75 1302.64 2978.75 1293.81 2975.31 1283.71C2971.88 1273.51 2970.16 1262.46 2970.16 1250.54ZM3013.8 1247.36V1250.54C3013.8 1257.41 3014.41 1263.82 3015.62 1269.78C3016.83 1275.74 3018.75 1280.99 3021.38 1285.53C3024.1 1289.97 3027.64 1293.46 3031.98 1295.98C3036.33 1298.5 3041.63 1299.77 3047.9 1299.77C3053.96 1299.77 3059.16 1298.5 3063.5 1295.98C3067.85 1293.46 3071.33 1289.97 3073.96 1285.53C3076.59 1280.99 3078.5 1275.74 3079.72 1269.78C3081.03 1263.82 3081.69 1257.41 3081.69 1250.54V1247.36C3081.69 1240.7 3081.03 1234.44 3079.72 1228.58C3078.5 1222.63 3076.53 1217.38 3073.81 1212.83C3071.18 1208.19 3067.7 1204.55 3063.35 1201.93C3059.01 1199.3 3053.75 1197.99 3047.59 1197.99C3041.43 1197.99 3036.18 1199.3 3031.83 1201.93C3027.59 1204.55 3024.1 1208.19 3021.38 1212.83C3018.75 1217.38 3016.83 1222.63 3015.62 1228.58C3014.41 1234.44 3013.8 1240.7 3013.8 1247.36Z" fill="#7FB069"/>
<path d="M3195.03 1201.93V1330.81H3151.39V1166.94H3192.3L3195.03 1201.93ZM3188.67 1243.12H3176.85C3176.85 1231.01 3178.41 1220.1 3181.55 1210.41C3184.68 1200.61 3189.07 1192.28 3194.73 1185.42C3200.39 1178.45 3207.1 1173.15 3214.88 1169.52C3222.76 1165.78 3231.55 1163.91 3241.25 1163.91C3248.93 1163.91 3255.95 1165.02 3262.31 1167.24C3268.68 1169.47 3274.13 1173 3278.68 1177.85C3283.32 1182.69 3286.86 1189.1 3289.28 1197.08C3291.81 1205.06 3293.07 1214.8 3293.07 1226.31V1330.81H3249.13V1226.16C3249.13 1218.89 3248.12 1213.24 3246.1 1209.2C3244.08 1205.16 3241.1 1202.33 3237.16 1200.72C3233.32 1199 3228.57 1198.14 3222.91 1198.14C3217.05 1198.14 3211.95 1199.3 3207.61 1201.62C3203.37 1203.95 3199.83 1207.18 3197 1211.32C3194.27 1215.36 3192.2 1220.1 3190.79 1225.55C3189.37 1231.01 3188.67 1236.86 3188.67 1243.12Z" fill="#7FB069"/>
<path d="M3401.72 1333.84C3388.99 1333.84 3377.58 1331.82 3367.47 1327.79C3357.37 1323.65 3348.79 1317.94 3341.71 1310.67C3334.74 1303.4 3329.39 1294.97 3325.65 1285.38C3321.91 1275.69 3320.04 1265.39 3320.04 1254.48V1248.42C3320.04 1236 3321.81 1224.64 3325.35 1214.35C3328.88 1204.05 3333.94 1195.11 3340.5 1187.54C3347.17 1179.97 3355.25 1174.16 3364.75 1170.12C3374.24 1165.98 3384.95 1163.91 3396.87 1163.91C3408.49 1163.91 3418.79 1165.83 3427.78 1169.67C3436.77 1173.5 3444.3 1178.96 3450.36 1186.02C3456.52 1193.09 3461.17 1201.57 3464.3 1211.47C3467.43 1221.26 3469 1232.17 3469 1244.18V1262.36H3338.68V1233.28H3426.12V1229.95C3426.12 1223.89 3425.01 1218.49 3422.78 1213.74C3420.66 1208.89 3417.43 1205.06 3413.09 1202.23C3408.74 1199.4 3403.19 1197.99 3396.42 1197.99C3390.66 1197.99 3385.71 1199.25 3381.57 1201.78C3377.42 1204.3 3374.04 1207.83 3371.41 1212.38C3368.89 1216.92 3366.97 1222.27 3365.66 1228.43C3364.44 1234.49 3363.84 1241.15 3363.84 1248.42V1254.48C3363.84 1261.04 3364.75 1267.1 3366.57 1272.66C3368.48 1278.21 3371.16 1283.01 3374.6 1287.04C3378.13 1291.08 3382.37 1294.21 3387.32 1296.43C3392.38 1298.66 3398.08 1299.77 3404.45 1299.77C3412.33 1299.77 3419.65 1298.25 3426.42 1295.22C3433.29 1292.09 3439.2 1287.4 3444.15 1281.14L3465.36 1304.16C3461.93 1309.11 3457.23 1313.85 3451.27 1318.4C3445.41 1322.94 3438.34 1326.67 3430.06 1329.6C3421.77 1332.43 3412.33 1333.84 3401.72 1333.84Z" fill="#7FB069"/>
</svg>
